<svg xmlns="http://www.w3.org/2000/svg" width="98" height="80" viewBox="0 0 98 80"><g><g><path fill="#2352de" d="M89.566 11.502c4.181 0 7.583 3.402 7.583 7.583v53.332c0 4.181-3.402 7.583-7.584 7.583H7.583C3.402 80 0 76.598 0 72.417V19.085c0-4.181 3.402-7.583 7.583-7.583h20.48V7.838C28.063 3.516 31.579 0 35.9 0h25.348c4.322 0 7.838 3.516 7.838 7.838v3.664zm-54.88 0h27.777V7.838c0-.67-.545-1.215-1.214-1.215H35.9c-.67 0-1.215.545-1.215 1.215zM7.584 18.125c-.53 0-.961.43-.961.96v17.397c10.262 3.794 25.72 6.035 41.924 6.035 16.24 0 31.718-2.248 41.98-6.055V19.085c0-.53-.432-.96-.961-.96zm81.982 55.252c.53 0 .96-.43.96-.96V43.481c-9.386 3.105-21.733 5.047-35.2 5.536 0 .04.006.078.006.116v1.46a4.97 4.97 0 0 1-4.966 4.966h-3.583a4.97 4.97 0 0 1-4.965-4.965v-1.46c0-.04.005-.077.005-.115-13.458-.485-25.807-2.422-35.2-5.52v28.918c0 .53.43.96.96.96z"/></g></g></svg>