<svg xmlns="http://www.w3.org/2000/svg" width="92" height="80" viewBox="0 0 92 80"><g><g><g><path fill="#2352de" d="M30.31 15.605C30.31 7.001 37.31 0 45.915 0s15.606 7 15.606 15.605-7 15.606-15.606 15.606c-8.604 0-15.605-7-15.605-15.606zm5.381 0c0 5.638 4.587 10.225 10.224 10.225 5.638 0 10.225-4.587 10.225-10.225 0-5.637-4.587-10.224-10.225-10.224-5.637 0-10.224 4.587-10.224 10.224z"/></g><g><path fill="#2352de" d="M67.62 21.345c0-5.44 4.426-9.865 9.865-9.865 5.44 0 9.866 4.426 9.866 9.865 0 5.44-4.426 9.866-9.866 9.866-5.44 0-9.865-4.426-9.865-9.866zm5.381 0a4.49 4.49 0 0 0 4.484 4.485 4.49 4.49 0 0 0 4.485-4.485 4.49 4.49 0 0 0-4.485-4.484 4.49 4.49 0 0 0-4.484 4.484z"/></g><g><path fill="#2352de" d="M79.66 37.31c6.715 0 12.178 5.43 12.179 12.106v19.403c0 3-2.451 5.442-5.464 5.442H70.11c-.276 3.21-2.976 5.74-6.257 5.74H27.986c-3.281 0-5.981-2.53-6.257-5.74H5.276C2.366 74.26 0 71.903 0 69.005v-19.59C0 42.742 5.464 37.31 12.18 37.31h4.16c4.905 0 9.138 2.897 11.067 7.059 3.971-4.336 9.676-7.059 16.005-7.059h5.015c6.329 0 12.033 2.723 16.005 7.059a12.198 12.198 0 0 1 11.066-7.059zM5.38 68.88h16.323c0-10.088-.374-12.91 1.435-17.622v-1.842c0-3.708-3.05-6.725-6.798-6.725h-4.162c-3.748 0-6.798 3.017-6.798 6.725zm59.372-9.862c0-9.003-7.324-16.327-16.327-16.327h-5.014c-9.003 0-16.327 7.324-16.327 16.327v14.7c0 .497.404.901.9.901h35.868c.496 0 .9-.404.9-.9zm21.704-9.602c0-3.708-3.05-6.725-6.798-6.725h-4.161c-3.749 0-6.799 3.017-6.799 6.725v1.842c1.807 4.703 1.435 7.46 1.435 17.621 17.326 0 16.323.032 16.323-.06z"/></g><g><path fill="#2352de" d="M4.48 21.345c0-5.44 4.426-9.865 9.865-9.865 5.44 0 9.866 4.426 9.866 9.865 0 5.44-4.426 9.866-9.866 9.866-5.44 0-9.865-4.426-9.865-9.866zm5.381 0a4.49 4.49 0 0 0 4.484 4.485 4.49 4.49 0 0 0 4.485-4.485 4.49 4.49 0 0 0-4.485-4.484 4.49 4.49 0 0 0-4.484 4.484z"/></g></g></g></svg>