<svg xmlns="http://www.w3.org/2000/svg" width="80" height="80" viewBox="0 0 80 80"><g><g><g><g><g><path fill="#2352de" d="M48.868 15.418c3.076-2.484 3.772-5.14 3.814-6.93.104-4.356-3.336-7.543-3.729-7.892a2.357 2.357 0 0 0-3.132 3.522c.022.02 2.201 2.058 2.149 4.258-.028 1.172-.703 2.276-2.064 3.375-3.075 2.485-3.771 5.14-3.814 6.93-.103 4.357 3.336 7.544 3.729 7.893.45.4 1.012.598 1.571.598.65 0 1.296-.266 1.76-.789a2.351 2.351 0 0 0-.19-3.323c-.618-.562-2.211-2.428-2.157-4.284.034-1.166.709-2.264 2.063-3.358z"/></g></g></g><g><g><g><path fill="#2352de" d="M33.918 15.418c3.076-2.484 3.772-5.14 3.814-6.93.104-4.356-3.336-7.543-3.729-7.892a2.357 2.357 0 0 0-3.132 3.522c.022.02 2.201 2.058 2.149 4.258-.028 1.172-.703 2.276-2.064 3.375-3.075 2.485-3.771 5.14-3.814 6.93-.103 4.357 3.336 7.544 3.729 7.893.45.4 1.012.598 1.571.598.65 0 1.296-.266 1.76-.789a2.351 2.351 0 0 0-.19-3.323c-.618-.562-2.211-2.428-2.157-4.284.034-1.166.709-2.264 2.063-3.358z"/></g></g></g><g><g><g><path fill="#2352de" d="M67.655 38.465c6.607 0 11.981 5.375 11.981 11.981s-5.374 11.981-11.98 11.981h-5.943c-2.663 5.295-6.87 9.76-12.064 12.864h12.86a2.357 2.357 0 1 1 0 4.714H2.36a2.357 2.357 0 1 1 0-4.714h12.858C6.084 69.83 0 60.167 0 49.176v-12.44a2.357 2.357 0 0 1 2.357-2.356h60.152a2.357 2.357 0 0 1 2.357 2.357v1.728zm-7.503 10.71V39.095H4.714v10.082c0 14.4 12.435 26.115 27.719 26.115s27.72-11.715 27.72-26.115zm7.503 8.538c4.007 0 7.268-3.26 7.268-7.267 0-4.007-3.26-7.267-7.268-7.267h-2.79v5.997a29.33 29.33 0 0 1-1.265 8.537z"/></g></g></g><g><g><g><path fill="#2352de" d="M18.958 15.418c3.076-2.484 3.772-5.14 3.814-6.93.104-4.356-3.336-7.543-3.729-7.892a2.357 2.357 0 0 0-3.132 3.522c.022.02 2.201 2.058 2.149 4.258-.028 1.172-.703 2.276-2.064 3.375-3.075 2.485-3.771 5.14-3.814 6.93-.103 4.356 3.337 7.544 3.729 7.893.45.4 1.008.596 1.566.596a2.357 2.357 0 0 0 1.567-4.118c-.022-.02-2.201-2.059-2.15-4.258.028-1.173.703-2.277 2.064-3.376z"/></g></g></g></g></g></svg>