<svg xmlns="http://www.w3.org/2000/svg" width="81" height="80" viewBox="0 0 81 80"><g><g><g><path fill="#2352de" d="M71.686 0c4.757 0 8.628 3.87 8.628 8.627v25.099c0 4.757-3.87 8.627-8.628 8.627h-10.51V61.96c0 4.757-3.87 8.627-8.627 8.627H38.122l-5.576 8.364a2.353 2.353 0 0 1-3.916 0l-5.576-8.364H8.627C3.87 70.588 0 66.718 0 61.961V36.863c0-4.757 3.87-8.628 8.627-8.628h10.51V8.627C19.137 3.87 23.007 0 27.765 0zM56.471 43.536l-4.788 7.18a2.352 2.352 0 0 1-1.958 1.049h-37.96a2.353 2.353 0 0 1 0-4.706h33.564l-3.137-4.706H11.765a2.353 2.353 0 0 1 0-4.706h8.319a8.572 8.572 0 0 1-.947-3.921v-.785H8.627a3.926 3.926 0 0 0-3.921 3.922V61.96a3.926 3.926 0 0 0 3.921 3.921h15.687c.786 0 1.521.394 1.957 1.048l4.317 6.475 4.317-6.475a2.353 2.353 0 0 1 1.958-1.048h15.686a3.926 3.926 0 0 0 3.922-3.921zM75.608 8.627a3.926 3.926 0 0 0-3.922-3.921H27.765a3.926 3.926 0 0 0-3.922 3.921v25.099a3.926 3.926 0 0 0 3.922 3.921H43.45c.787 0 1.521.393 1.958 1.048l4.317 6.475 4.316-6.475A2.352 2.352 0 0 1 56 37.647h15.686a3.926 3.926 0 0 0 3.922-3.921z"/></g><g><path fill="#2352de" d="M49.41 56.47H11.763a2.353 2.353 0 0 0 0 4.706H49.41a2.353 2.353 0 0 0 0-4.706z"/></g><g><path fill="#2352de" d="M61.042 16.382a2.353 2.353 0 0 1 1.304 4.014l-4.604 4.488 1.087 6.337a2.353 2.353 0 0 1-3.414 2.48l-5.691-2.992-5.692 2.993a2.354 2.354 0 0 1-3.414-2.48l1.087-6.338-4.604-4.488a2.353 2.353 0 0 1 1.304-4.014l6.363-.924 2.845-5.766a2.353 2.353 0 0 1 4.22 0l2.846 5.766 6.363.924zm-5.394 3.972l-2.87-.417a2.353 2.353 0 0 1-1.77-1.287l-1.284-2.6-1.283 2.6a2.353 2.353 0 0 1-1.772 1.287l-2.87.417 2.077 2.024c.555.54.808 1.319.677 2.082l-.49 2.858 2.566-1.35a2.352 2.352 0 0 1 2.19 0l2.566 1.35-.49-2.858a2.352 2.352 0 0 1 .676-2.083z"/></g></g></g></svg>